<svg width="120" height="90" viewBox="0 0 120 90" fill="none" xmlns="http://www.w3.org/2000/svg">
<g clip-path="url(#clip0_1643_4)">
<path d="M27.1324 89.557V43.4332L12.828 30.3468L0.000854492 23.0848V81.4174C0.000854492 85.9211 3.64982 89.557 8.14049 89.557H27.1324Z" fill="#4285F4"/>
<path d="M92.2476 89.557H111.239C115.744 89.557 119.379 85.9076 119.379 81.4174V23.0852L104.85 31.403L92.2476 43.4332V89.557Z" fill="#34A853"/>
<path d="M27.1323 43.4331L25.1859 25.4112L27.1323 8.16248L59.69 32.5809L92.2476 8.16248L94.4248 24.48L92.2476 43.4331L59.69 67.8516L27.1323 43.4331Z" fill="#EA4335"/>
<path d="M92.2476 8.1625V43.4332L119.379 23.0848V12.2321C119.379 2.16654 107.889 -3.57155 99.8449 2.46498L92.2476 8.1625Z" fill="#FBBC04"/>
<path d="M0.000854492 23.0848L12.4791 32.4439L27.1324 43.4332V8.16256L19.5351 2.46504C11.477 -3.57195 0.000854492 2.1666 0.000854492 12.2317V23.0844V23.0848Z" fill="#C5221F"/>
</g>
<defs>
<clipPath id="clip0_1643_4">
<rect width="119.38" height="90" fill="white"/>
</clipPath>
</defs>
</svg>
